<mxfile host="app.diagrams.net" modified="2024-06-30T06:17:21.493Z" agent="Mozilla/5.0 (Macintosh; Intel Mac OS X 10_15_7) AppleWebKit/605.1.15 (KHTML, like Gecko) Version/17.4.1 Safari/605.1.15" etag="Im_DNsB0kuQ4RWw44wf5" version="24.6.4" type="github">
  <diagram name="Page-1" id="L4ZYfcpQkSgi4Oiu_YIJ">
    <mxGraphModel dx="795" dy="435" grid="1" gridSize="10" guides="1" tooltips="1" connect="1" arrows="1" fold="1" page="1" pageScale="1" pageWidth="827" pageHeight="1169" math="0" shadow="0">
      <root>
        <mxCell id="0" />
        <mxCell id="1" parent="0" />
        <mxCell id="xakpM9dkyvltByfH3bZJ-6" value="" style="rounded=0;whiteSpace=wrap;html=1;" vertex="1" parent="1">
          <mxGeometry x="223" y="160" width="667" height="230" as="geometry" />
        </mxCell>
        <mxCell id="XU5ZbtjM1lUGjj7O18cu-2" value="Directly register complaint in IRDA portal" style="rounded=1;whiteSpace=wrap;html=1;" parent="1" vertex="1">
          <mxGeometry x="100" y="190" width="100" height="50" as="geometry" />
        </mxCell>
        <mxCell id="XU5ZbtjM1lUGjj7O18cu-6" style="edgeStyle=orthogonalEdgeStyle;rounded=0;orthogonalLoop=1;jettySize=auto;html=1;entryX=0;entryY=0.5;entryDx=0;entryDy=0;" parent="1" source="XU5ZbtjM1lUGjj7O18cu-3" target="XU5ZbtjM1lUGjj7O18cu-5" edge="1">
          <mxGeometry relative="1" as="geometry" />
        </mxCell>
        <mxCell id="XU5ZbtjM1lUGjj7O18cu-3" value="Email From Customer" style="rounded=1;whiteSpace=wrap;html=1;" parent="1" vertex="1">
          <mxGeometry x="110" y="270" width="80" height="40" as="geometry" />
        </mxCell>
        <mxCell id="XU5ZbtjM1lUGjj7O18cu-4" value="Call From Customer" style="rounded=1;whiteSpace=wrap;html=1;" parent="1" vertex="1">
          <mxGeometry x="110" y="345" width="80" height="35" as="geometry" />
        </mxCell>
        <mxCell id="XU5ZbtjM1lUGjj7O18cu-10" style="edgeStyle=orthogonalEdgeStyle;rounded=0;orthogonalLoop=1;jettySize=auto;html=1;entryX=0;entryY=0.5;entryDx=0;entryDy=0;" parent="1" source="XU5ZbtjM1lUGjj7O18cu-5" target="XU5ZbtjM1lUGjj7O18cu-9" edge="1">
          <mxGeometry relative="1" as="geometry" />
        </mxCell>
        <mxCell id="XU5ZbtjM1lUGjj7O18cu-5" value="New Ticket Created in Desk" style="rounded=1;whiteSpace=wrap;html=1;" parent="1" vertex="1">
          <mxGeometry x="240" y="270" width="90" height="40" as="geometry" />
        </mxCell>
        <mxCell id="XU5ZbtjM1lUGjj7O18cu-12" style="edgeStyle=orthogonalEdgeStyle;rounded=0;orthogonalLoop=1;jettySize=auto;html=1;entryX=0;entryY=0.5;entryDx=0;entryDy=0;" parent="1" source="XU5ZbtjM1lUGjj7O18cu-9" target="XU5ZbtjM1lUGjj7O18cu-11" edge="1">
          <mxGeometry relative="1" as="geometry" />
        </mxCell>
        <mxCell id="XU5ZbtjM1lUGjj7O18cu-9" value="Ticket Assignment" style="rounded=1;whiteSpace=wrap;html=1;" parent="1" vertex="1">
          <mxGeometry x="360" y="270" width="80" height="40" as="geometry" />
        </mxCell>
        <mxCell id="XU5ZbtjM1lUGjj7O18cu-14" style="edgeStyle=orthogonalEdgeStyle;rounded=0;orthogonalLoop=1;jettySize=auto;html=1;entryX=0;entryY=0.5;entryDx=0;entryDy=0;" parent="1" source="XU5ZbtjM1lUGjj7O18cu-11" target="XU5ZbtjM1lUGjj7O18cu-13" edge="1">
          <mxGeometry relative="1" as="geometry" />
        </mxCell>
        <mxCell id="XU5ZbtjM1lUGjj7O18cu-11" value="GM Checks customer details" style="rounded=1;whiteSpace=wrap;html=1;" parent="1" vertex="1">
          <mxGeometry x="480" y="270" width="80" height="40" as="geometry" />
        </mxCell>
        <mxCell id="XU5ZbtjM1lUGjj7O18cu-16" style="edgeStyle=orthogonalEdgeStyle;rounded=0;orthogonalLoop=1;jettySize=auto;html=1;entryX=0;entryY=0.5;entryDx=0;entryDy=0;" parent="1" source="XU5ZbtjM1lUGjj7O18cu-13" target="XU5ZbtjM1lUGjj7O18cu-19" edge="1">
          <mxGeometry relative="1" as="geometry">
            <mxPoint x="720" y="290" as="targetPoint" />
          </mxGeometry>
        </mxCell>
        <mxCell id="XU5ZbtjM1lUGjj7O18cu-13" value="Resolve&amp;nbsp;&lt;div&gt;the issue&lt;/div&gt;" style="rhombus;whiteSpace=wrap;html=1;" parent="1" vertex="1">
          <mxGeometry x="610" y="257.5" width="70" height="65" as="geometry" />
        </mxCell>
        <mxCell id="XU5ZbtjM1lUGjj7O18cu-28" style="edgeStyle=orthogonalEdgeStyle;rounded=0;orthogonalLoop=1;jettySize=auto;html=1;" parent="1" source="XU5ZbtjM1lUGjj7O18cu-17" target="XU5ZbtjM1lUGjj7O18cu-27" edge="1">
          <mxGeometry relative="1" as="geometry" />
        </mxCell>
        <mxCell id="XU5ZbtjM1lUGjj7O18cu-17" value="Not Satisfied" style="rounded=1;whiteSpace=wrap;html=1;" parent="1" vertex="1">
          <mxGeometry x="612.5" y="180" width="65" height="30" as="geometry" />
        </mxCell>
        <mxCell id="XU5ZbtjM1lUGjj7O18cu-19" value="Satisfied" style="rounded=1;whiteSpace=wrap;html=1;" parent="1" vertex="1">
          <mxGeometry x="717" y="275" width="83" height="30" as="geometry" />
        </mxCell>
        <mxCell id="XU5ZbtjM1lUGjj7O18cu-21" value="Ticket Closed" style="rounded=1;whiteSpace=wrap;html=1;" parent="1" vertex="1">
          <mxGeometry x="727.75" y="345" width="61.5" height="30" as="geometry" />
        </mxCell>
        <mxCell id="XU5ZbtjM1lUGjj7O18cu-29" style="edgeStyle=orthogonalEdgeStyle;rounded=0;orthogonalLoop=1;jettySize=auto;html=1;entryX=0.5;entryY=0;entryDx=0;entryDy=0;" parent="1" source="XU5ZbtjM1lUGjj7O18cu-27" target="XU5ZbtjM1lUGjj7O18cu-11" edge="1">
          <mxGeometry relative="1" as="geometry" />
        </mxCell>
        <mxCell id="XU5ZbtjM1lUGjj7O18cu-27" value="Ticket Reopen" style="rounded=1;whiteSpace=wrap;html=1;" parent="1" vertex="1">
          <mxGeometry x="495" y="175" width="50" height="40" as="geometry" />
        </mxCell>
        <mxCell id="xakpM9dkyvltByfH3bZJ-1" value="" style="endArrow=classic;html=1;rounded=0;exitX=0.5;exitY=0;exitDx=0;exitDy=0;entryX=0.5;entryY=1;entryDx=0;entryDy=0;" edge="1" parent="1" source="XU5ZbtjM1lUGjj7O18cu-13" target="XU5ZbtjM1lUGjj7O18cu-17">
          <mxGeometry width="50" height="50" relative="1" as="geometry">
            <mxPoint x="430" y="350" as="sourcePoint" />
            <mxPoint x="480" y="300" as="targetPoint" />
          </mxGeometry>
        </mxCell>
        <mxCell id="xakpM9dkyvltByfH3bZJ-2" value="" style="endArrow=classic;html=1;rounded=0;entryX=0.5;entryY=0;entryDx=0;entryDy=0;exitX=0.5;exitY=1;exitDx=0;exitDy=0;" edge="1" parent="1" source="XU5ZbtjM1lUGjj7O18cu-19" target="XU5ZbtjM1lUGjj7O18cu-21">
          <mxGeometry width="50" height="50" relative="1" as="geometry">
            <mxPoint x="790" y="300" as="sourcePoint" />
            <mxPoint x="600" y="310" as="targetPoint" />
          </mxGeometry>
        </mxCell>
        <mxCell id="xakpM9dkyvltByfH3bZJ-4" value="" style="endArrow=classic;html=1;rounded=0;exitX=1;exitY=0.5;exitDx=0;exitDy=0;entryX=0;entryY=0.5;entryDx=0;entryDy=0;" edge="1" parent="1" source="XU5ZbtjM1lUGjj7O18cu-4" target="XU5ZbtjM1lUGjj7O18cu-5">
          <mxGeometry width="50" height="50" relative="1" as="geometry">
            <mxPoint x="330" y="340" as="sourcePoint" />
            <mxPoint x="380" y="290" as="targetPoint" />
            <Array as="points">
              <mxPoint x="210" y="363" />
              <mxPoint x="210" y="290" />
            </Array>
          </mxGeometry>
        </mxCell>
        <mxCell id="xakpM9dkyvltByfH3bZJ-5" value="" style="endArrow=classic;html=1;rounded=0;exitX=1;exitY=0.5;exitDx=0;exitDy=0;entryX=0;entryY=0.5;entryDx=0;entryDy=0;" edge="1" parent="1" source="XU5ZbtjM1lUGjj7O18cu-2" target="XU5ZbtjM1lUGjj7O18cu-5">
          <mxGeometry width="50" height="50" relative="1" as="geometry">
            <mxPoint x="330" y="340" as="sourcePoint" />
            <mxPoint x="380" y="290" as="targetPoint" />
            <Array as="points">
              <mxPoint x="210" y="215" />
              <mxPoint x="210" y="290" />
            </Array>
          </mxGeometry>
        </mxCell>
        <mxCell id="xakpM9dkyvltByfH3bZJ-7" value="Start" style="rounded=1;whiteSpace=wrap;html=1;fillColor=#ffe6cc;strokeColor=#d79b00;" vertex="1" parent="1">
          <mxGeometry x="255" y="213.5" width="60" height="25" as="geometry" />
        </mxCell>
        <mxCell id="xakpM9dkyvltByfH3bZJ-8" value="" style="endArrow=classic;html=1;rounded=0;exitX=0.5;exitY=1;exitDx=0;exitDy=0;entryX=0.5;entryY=0;entryDx=0;entryDy=0;" edge="1" parent="1" source="xakpM9dkyvltByfH3bZJ-7" target="XU5ZbtjM1lUGjj7O18cu-5">
          <mxGeometry width="50" height="50" relative="1" as="geometry">
            <mxPoint x="560" y="340" as="sourcePoint" />
            <mxPoint x="610" y="290" as="targetPoint" />
          </mxGeometry>
        </mxCell>
        <mxCell id="xakpM9dkyvltByfH3bZJ-9" value="" style="endArrow=classic;html=1;rounded=0;entryX=0;entryY=0.5;entryDx=0;entryDy=0;exitX=1;exitY=0.5;exitDx=0;exitDy=0;" edge="1" parent="1" source="XU5ZbtjM1lUGjj7O18cu-21" target="xakpM9dkyvltByfH3bZJ-10">
          <mxGeometry width="50" height="50" relative="1" as="geometry">
            <mxPoint x="560" y="340" as="sourcePoint" />
            <mxPoint x="610" y="290" as="targetPoint" />
          </mxGeometry>
        </mxCell>
        <mxCell id="xakpM9dkyvltByfH3bZJ-10" value="End" style="rounded=1;whiteSpace=wrap;html=1;fillColor=#ffe6cc;strokeColor=#d79b00;" vertex="1" parent="1">
          <mxGeometry x="820" y="345" width="60" height="30" as="geometry" />
        </mxCell>
      </root>
    </mxGraphModel>
  </diagram>
</mxfile>
